<svg xmlns="http://www.w3.org/2000/svg" viewBox="0 0 863.56 501.06"><defs><style>.cls-1{fill:#1f1f1f;stroke:#fff;stroke-miterlimit:10;stroke-width:2px;}.cls-2{fill:#d0ff00;}.cls-3{fill:#fff;}</style></defs><g id="Layer_1" data-name="Layer 1"><rect class="cls-1" x="581.48" y="123.93" width="270.97" height="265.45"/><rect class="cls-2" x="604.08" y="323.52" width="46.09" height="45.15"/></g><g id="Image_1_-_Plasma" data-name="Image 1 - Plasma"><path class="cls-3" d="M111.39,236.19v14H25.28V130H42.21V236.19Z"/><path class="cls-3" d="M121.88,205.09V130h18.21v77.46c0,19.87,18.95,33.31,38.64,33.31,19.5,0,37.17-14.72,37.17-33.31V130h18.21v75.07c0,23-20.42,46.74-56.12,46.74C141.75,251.83,121.88,227.91,121.88,205.09Z"/><path class="cls-3" d="M319.67,124c36.8,0,67.34,17.3,71.94,48.39L374.13,174c-3.86-25.94-27.6-37.35-54.46-37.54-31.83-.18-55.75,20.61-55.75,51.71,0,30.72,22.45,51.51,55.93,51.51,28.34,0,48.94-12,54.1-36.43l16.92,2.21C384.8,235.63,356.28,252,320,252c-40.85,0-74-26.68-74-64C246.07,150.45,278.64,124,319.67,124Z"/><path class="cls-3" d="M399.5,215.36c0-25.73,31.14-37.4,55.78-37.4,25.51,0,53,12.32,71.57,25.08,0-8.43.21-16.87.21-19.24,0-25.3-15.78-32.87-26.59-32.87H436.26l-6.06-15.78h81.08c19.89,2.81,37.19,17.95,37.19,48.21v66.81H526.85V226.39c-17.73,12.54-50.16,25.08-74.38,25.08C430.2,251.47,399.5,241.09,399.5,215.36Zm21.62-.21c0,18.8,22.49,25.51,38.92,25.51,25.73,0,53.83-16.22,66.81-24.65v-1.95c-6.92-5-35.68-24.86-65.51-24.86C443,189.2,421.12,196.55,421.12,215.15Z"/><path class="cls-3" d="M111.39,374.18v14H25.28V268H42.21V374.18Z"/><path class="cls-3" d="M116.15,353.36c0-25.73,31.13-37.4,55.78-37.4,25.51,0,53,12.32,71.56,25.08,0-8.44.22-16.87.22-19.25,0-25.29-15.78-32.86-26.59-32.86H152.9l-6.05-15.78h81.08c19.89,2.81,37.18,17.94,37.18,48.21v66.81H243.49V364.38c-17.73,12.54-50.16,25.08-74.37,25.08C146.85,389.46,116.15,379.09,116.15,353.36Zm21.62-.22c0,18.81,22.48,25.51,38.92,25.51,25.72,0,53.83-16.21,66.8-24.64v-1.95c-6.92-5-35.67-24.86-65.51-24.86C159.61,327.2,137.77,334.55,137.77,353.14Z"/><path class="cls-3" d="M346.24,261.4c22.63,0,43.06,10.12,55.94,25.2l-15.83,9.2c-9.38-11.4-24.65-18.58-40.48-18.58-28.7,0-52.07,21.71-52.07,48.39,0,28.15,22.08,48.57,50.6,48.57,14,0,30.18-6.25,39.74-17.29V333.71H330.42V323.22H400v64.95H387.46V373.08c-11.78,10.3-27.42,16.74-43.06,16.74-40.48,0-68.81-28.7-68.81-64.21S306.5,261.4,346.24,261.4Z"/><path class="cls-3" d="M413.22,326.71c0-35.87,32.56-64.76,74.33-64.76,40.11,0,73.23,26.68,73.23,64,0,37-32.57,64-73.6,64C446.33,390,413.22,363,413.22,326.71Zm73.59,50.05c30,0,55.38-18.95,55.38-50.78,0-31.1-24.1-50.42-53.91-50.42-31.64-.18-56.3,21.16-56.3,51.52C432,357.62,457,376.76,486.81,376.76Z"/></g></svg>